# xmcd
#
# Track frame offsets:
#	150
#	14918
#	30399
#	45014
#	56083
#	73638
#	106787
#	122077
#	141395
#	154151
#
# Disc length: 2412 seconds
#
# Revision: 0
# Processed by: cddbd v1.5PL3 Copyright (c) Steve Scherf et al.
# Submitted via: dBpowerAMP V4.0
#
DISCID=83096a0a
DTITLE=Andreas Vollenweider - Favourites
DYEAR=1900
DGENRE=
TTITLE0=Pearls and Tears 
TTITLE1=Flight feet - root hands
TTITLE2=Mandragora
TTITLE3=Passage to promise
TTITLE4=Dancind with the lion
TTITLE5=Behind the gardens , behind the walls , under the tree
TTITLE6=Stella
TTITLE7=Pace verde
TTITLE8=See , my love
TTITLE9=Play of the five balls
EXTD=
EXTT0=
EXTT1=
EXTT2=
EXTT3=
EXTT4=
EXTT5=
EXTT6=
EXTT7=
EXTT8=
EXTT9=
PLAYORDER=
